<svg viewBox="0 0 64 64" version="1.1" id="svg7118" xmlns="http://www.w3.org/2000/svg">
  <defs id="defs7122"></defs>
  
  <g id="g7494">
    <path id="path7104" d="m 17.025391,37.150391 c -0.368149,-0.0052 -0.739779,0.0095 -1.113282,0.04297 -5.9760357,0.535651 -10.508307,5.961464 -9.9726559,11.9375 0.5356512,5.976036 5.9614639,10.510261 11.9374999,9.97461 2.506548,-0.22467 4.756859,-1.312351 6.488281,-2.9375 1.133244,0.425269 2.369296,0.611825 3.638672,0.498047 4.567056,-0.409359 8.032407,-4.555992 7.623047,-9.123047 -0.409359,-4.567056 -4.555991,-8.032407 -9.123047,-7.623047 -0.669068,0.05997 -1.314696,0.202135 -1.927734,0.412109 -1.980853,-1.936914 -4.666945,-3.140592 -7.550781,-3.18164 z m -0.0039,6.998047 c 0.910337,0.03552 5.108494,1.652894 5.795967,2.250686 -0.502729,1.207682 -0.145382,1.565292 -0.02222,2.939376 0.06942,0.774499 -1.218532,1.221734 -3.201075,1.821453 -2.682172,1.410281 -6.391811,0.521883 -6.684001,-2.654094 -0.215852,-2.392284 1.710546,-4.433992 4.111328,-4.357421 z" style="fill:#77320b;fill-opacity:1"></path>
    <g id="g7562" transform="rotate(3.9633747,36.116202,43.989909)">
      <rect x="48.323002" y="-50.853642" width="3" height="28" rx="1" fill="#78350f" id="rect7108" transform="rotate(84.878084)"></rect>
      <rect x="46.323002" y="-54.853642" width="7" height="6" rx="1" fill="#d97706" id="rect7110" transform="rotate(84.878084)"></rect>
      <line x1="54.875355" y1="42.59407" x2="52.883343" y2="42.772617" stroke="#fbbf24" stroke-width="0.5" id="line7112"></line>
      <line x1="55.053905" y1="44.586082" x2="53.061893" y2="44.764633" stroke="#fbbf24" stroke-width="0.5" id="line7114"></line>
      <line x1="55.232456" y1="46.578098" x2="53.240444" y2="46.756645" stroke="#fbbf24" stroke-width="0.5" id="line7116"></line>
    </g>
    <path style="fill:#000000;fill-opacity:1;stroke:none;stroke-width:0.2;stroke-dasharray:none;stroke-opacity:1" d="m 13.015291,46.385321 40.122324,-0.978593 h 0.09786" id="path8456"></path>
    <circle style="fill:#000000;fill-opacity:1;stroke:none;stroke-width:0.2;stroke-dasharray:none;stroke-opacity:1" id="path8532" cx="16.440367" cy="47.85321" r="4.9908257"></circle>
    <path d="m 25.502289,47.147593 c -0.446376,-4.980035 -4.787505,-8.606962 -9.76754,-8.160585 -4.980035,0.446376 -8.6069623,4.787505 -8.1605853,9.76754 0.446376,4.980035 4.7875053,8.606962 9.7675403,8.160585 4.980035,-0.446376 8.606962,-4.787505 8.160585,-9.76754 z m -12.94809,1.160579 a 4,4 0 1 1 7.968055,-0.714203 4,4 0 0 1 -7.968055,0.714203 z" fill="#b45309" id="path7106-1" style="fill:#a24a08;fill-opacity:1"></path>
    <rect style="fill:#000000;fill-opacity:1;stroke:none;stroke-width:0.2;stroke-dasharray:none;stroke-opacity:1" id="rect7672" width="0.88073397" height="3.7186544" x="11.363915" y="45.700306" ry="0.14678898"></rect>
    <path style="fill:#000000;fill-opacity:1;stroke:#fbebc5;stroke-width:0.201919;stroke-dasharray:none;stroke-opacity:1" d="m 11.498409,46.678809 40.903464,-0.978413 h 0.09976" id="path8456-3"></path>
    <path style="fill:#000000;fill-opacity:1;stroke:#fbebc5;stroke-width:0.201919;stroke-dasharray:none;stroke-opacity:1" d="m 11.597454,47.461698 40.903464,-0.978413 h 0.09976" id="path8456-3-4"></path>
    <path style="fill:#000000;fill-opacity:1;stroke:#fbebc5;stroke-width:0.201919;stroke-dasharray:none;stroke-opacity:1" d="m 11.597454,48.244572 40.903464,-0.978413 h 0.09976" id="path8456-3-8"></path>
  </g>
</svg>
