<svg viewBox="0 0 64 64" version="1.1" id="svg503" xmlns="http://www.w3.org/2000/svg">
  <defs id="defs507"></defs>
  
  
  <line x1="10" y1="32" x2="52" y2="32" stroke="#78350F" stroke-width="2" id="line483"></line>
  
  <path id="polygon485" style="fill:#9ca3af" d="M 64,32 48.715869,26.268451 c -0.345313,0.02982 -0.36428,0.02718 -0.51178,0.343817 L 50,32 48.218112,37.345664 c 0.04357,0.408437 0.05527,0.420254 0.407774,0.419629 z"></path>
  
  
  <polygon points="10,31 4,24 14,30" fill="#DC2626" opacity="0.9" id="polygon489"></polygon>
  
  <polygon points="10,33 4,40 14,34" fill="#DC2626" opacity="0.9" id="polygon491"></polygon>
  
  <polygon points="14,31 8,25 18,30" fill="#B91C1C" opacity="0.8" id="polygon493"></polygon>
  
  <polygon points="14,33 8,39 18,34" fill="#B91C1C" opacity="0.8" id="polygon495"></polygon>
  
  <polygon points="18,31 12,26 22,30.5" fill="#991B1B" opacity="0.7" id="polygon497"></polygon>
  
  <polygon points="18,33 12,38 22,33.5" fill="#991B1B" opacity="0.7" id="polygon499"></polygon>
  
</svg>
