<svg viewBox="0 0 64 64" version="1.1" id="svg3" xmlns="http://www.w3.org/2000/svg">
  <defs id="defs3"></defs>
  
  <g transform="translate(-4.5714 -4.5714) scale(1.1429)" id="g3">
    <circle cx="31.998951" cy="31.998951" fill="#3b82f6" id="circle1" style="stroke-width:0.999962;fill:#d6d6d6;fill-opacity:1" r="27.998951"></circle>
    <path d="M 54.172193,14.914874 H 9.9026129 a 27.998951,27.998951 0 0 0 -1.457709,1.946461 27.998951,27.998951 0 0 0 -1.913991,3.506704 27.998951,27.998951 0 0 0 -1.396188,3.742536 27.998951,27.998951 0 0 0 -0.849333,3.903173 27.998951,27.998951 0 0 0 -0.28539,3.985203 27.998951,27.998951 0 0 0 0.28539,3.985201 27.998951,27.998951 0 0 0 0.849333,3.903175 27.998951,27.998951 0 0 0 1.396188,3.742535 27.998951,27.998951 0 0 0 1.913991,3.506704 27.998951,27.998951 0 0 0 2.0797561,2.776996 h 42.948585 a 27.998951,27.998951 0 0 0 2.079756,-2.776996 27.998951,27.998951 0 0 0 1.915699,-3.506704 27.998951,27.998951 0 0 0 1.394479,-3.742535 27.998951,27.998951 0 0 0 0.849333,-3.903175 27.998951,27.998951 0 0 0 0.28539,-3.985201 27.998951,27.998951 0 0 0 -0.03418,-1.373973 27.998951,27.998951 0 0 0 -0.100826,-1.370554 27.998951,27.998951 0 0 0 -0.167474,-1.363718 27.998951,27.998951 0 0 0 -0.23583,-1.353465 27.998951,27.998951 0 0 0 -0.30077,-1.341502 27.998951,27.998951 0 0 0 -0.36571,-1.324414 27.998951,27.998951 0 0 0 -0.432357,-1.305614 27.998951,27.998951 0 0 0 -0.493878,-1.281691 27.998951,27.998951 0 0 0 -0.557108,-1.256056 27.998951,27.998951 0 0 0 -0.61692,-1.227004 27.998951,27.998951 0 0 0 -0.678441,-1.196245 27.998951,27.998951 0 0 0 -0.734836,-1.160357 27.998951,27.998951 0 0 0 -0.79123,-1.124469 27.998951,27.998951 0 0 0 -0.316149,-0.405015 z" style="fill:#1e4fd7;fill-rule:evenodd;stroke-width:0.77409;fill-opacity:1" id="path25"></path>
    <circle cx="31.998775" cy="31.998775" fill="#3b82f6" id="circle2" style="stroke-width:1.39994;fill:#ffffff;fill-opacity:1" r="13.999475"></circle>
    <text x="32.125298" y="35.822521" text-anchor="middle" font-size="11.6874px" font-family="'Arial Black', sans-serif" font-weight="900" fill="#eff6ff" id="text2" style="fill:#1e4fd7;fill-opacity:1;stroke-width:1.0625" transform="scale(0.98877191,1.0113556)">10</text>
  </g>
</svg>
