<svg viewBox="0 0 64 64" version="1.1" xmlns="http://www.w3.org/2000/svg"><defs></defs><path d="M 30.140229,1.3852621 Q 41.847035,8.0748653 40.174634,18.10927 38.502233,24.798873 35.157432,29.816076 l -5.017203,-3.344802 z" fill="#3B82F6" id="path8729" style="stroke-width:0.8362"></path><path d="M 30.140229,1.3852621 Q 18.433424,8.0748653 20.105824,18.10927 q 1.672401,6.689603 5.017203,11.706806 l 5.017202,-3.344802 z" fill="#BFDBFE" id="path8731" style="stroke-width:0.8362"></path><path d="m 30.140229,26.471274 q 3.344802,8.362004 1.672401,15.051607 l -1.672401,5.017203 z" fill="#3B82F6" opacity="0.6" id="path8733" style="stroke-width:0.8362"></path><path d="m 30.140229,26.471274 q -3.344801,8.362004 -1.672401,15.051607 l 1.672401,5.017203 z" fill="#BFDBFE" opacity="0.6" id="path8735" style="stroke-width:0.8362"></path><path style="fill:none;stroke:#1E3A8A;stroke-width:0.576443;stroke-dasharray:none;stroke-opacity:1" d="m 21.826813,9.1532685 c 3.516272,1.7538025 3.516272,1.7538025 3.516272,1.7538025"></path><path style="fill:none;stroke:#1E3A8A;stroke-width:0.576443;stroke-dasharray:none;stroke-opacity:1" d="m 20.788334,11.041412 c 3.516272,1.753803 3.516272,1.753803 3.516272,1.753803"></path><path style="fill:none;stroke:#1E3A8A;stroke-width:0.576443;stroke-dasharray:none;stroke-opacity:1" d="m 20.316299,13.118369 c 3.516272,1.753803 3.516272,1.753803 3.516272,1.753803"></path><path style="fill:none;stroke:#1E3A8A;stroke-width:0.576443;stroke-dasharray:none;stroke-opacity:1" d="m 20.127484,15.478548 c 3.516272,1.753803 3.516272,1.753803 3.516272,1.753803"></path><path style="fill:none;stroke:#1E3A8A;stroke-width:0.576443;stroke-dasharray:none;stroke-opacity:1" d="m 20.316298,18.027542 c 3.516272,1.753803 3.516272,1.753803 3.516272,1.753803"></path><path style="fill:none;stroke:#1E3A8A;stroke-width:0.576443;stroke-dasharray:none;stroke-opacity:1" d="M 38.355285,9.4199662 C 34.839014,11.173769 34.839014,11.173769 34.839014,11.173769"></path><path style="fill:none;stroke:#1E3A8A;stroke-width:0.576443;stroke-dasharray:none;stroke-opacity:1" d="m 39.393764,11.30811 c -3.516271,1.753802 -3.516271,1.753802 -3.516271,1.753802"></path><path style="fill:none;stroke:#1E3A8A;stroke-width:0.576443;stroke-dasharray:none;stroke-opacity:1" d="M 39.865799,13.385067 C 36.349528,15.13887 36.349528,15.13887 36.349528,15.13887"></path><path style="fill:none;stroke:#1E3A8A;stroke-width:0.576443;stroke-dasharray:none;stroke-opacity:1" d="m 40.054614,15.745246 c -3.516271,1.753803 -3.516271,1.753803 -3.516271,1.753803"></path><path style="fill:none;stroke:#1E3A8A;stroke-width:0.576443;stroke-dasharray:none;stroke-opacity:1" d="m 39.8658,18.29424 c -3.516271,1.753802 -3.516271,1.753802 -3.516271,1.753802"></path><path d="m 30.099986,1.4033796 c -2.500612,1.8825826 -3.508119,2.3319073 -4.877242,3.683089 -2.779788,2.7433607 -5.191462,5.5660784 -5.191462,10.0029794 0,4.137661 2.096932,10.015892 5.034488,14.568193 3.510202,5.439725 2.045585,12.716477 5.034216,16.90056" fill="none" stroke="#1E3A8A" stroke-width="1.5" style="stroke-width:0.4181;stroke-dasharray:none"></path><path d="m 30.140229,1.3852621 c 2.500612,1.8825826 3.508119,2.3319073 4.877242,3.683089 2.779788,2.7433611 5.191462,5.5660789 5.191462,10.0029789 0,4.137662 -2.096932,10.015893 -5.034488,14.568194 -3.510202,5.439725 -2.045585,12.716477 -5.034216,16.90056" fill="none" stroke="#1E3A8A" stroke-width="1.5" style="stroke-width:0.4181;stroke-dasharray:none"></path><path style="fill:none;fill-opacity:1;stroke:#1E3A8A;stroke-width:0.837318;stroke-dasharray:none;stroke-opacity:1" d="m 30.168016,46.401289 c -0.235753,2.367371 -0.489354,7.293331 -1.072295,8.778353"></path></svg>