<svg xmlns="http://www.w3.org/2000/svg" viewBox="0 0 64 64"><defs><style>*{fill-rule:evenodd}</style></defs><rect x="8" y="14" width="48" height="3" rx="1.5" style="fill:#1e3a5f"/><rect x="30" y="17" width="4" height="6" style="fill:#2a5080"/><ellipse cx="32" cy="32" rx="18" ry="10" style="fill:#2a5080"/><ellipse cx="32" cy="32" rx="15" ry="8" style="fill:#3b6ea0"/><rect x="12" y="29" width="8" height="6" rx="1" style="fill:#5a9fd4"/><polygon points="48,28 60,22 60,26 48,32" style="fill:#1e3a5f"/><polygon points="48,32 60,38 60,34 48,32" style="fill:#2a5080"/><rect x="22" y="42" width="6" height="4" rx="1" style="fill:#1e3a5f"/><rect x="36" y="42" width="6" height="4" rx="1" style="fill:#1e3a5f"/><rect x="20" y="46" width="10" height="2" rx="1" style="fill:#1e3a5f"/><rect x="34" y="46" width="10" height="2" rx="1" style="fill:#1e3a5f"/><circle cx="17" cy="32" r="3" style="fill:#5a9fd4;opacity:0.6"/></svg>