<svg viewBox="0 0 64 64" version="1.1" id="svg13" xmlns="http://www.w3.org/2000/svg">
  <defs id="defs13"></defs>
  
  
  
  
  
  
  
  
  
  <g transform="matrix(1.0260093,0,0,1.0260093,-0.8322976,-0.10546465)" id="g13">
    <circle cx="32" cy="32" r="28" fill="#bfdbfe" stroke="#1e3a8a" stroke-width="2" id="circle1"></circle>
    <circle cx="32" cy="32" r="24" fill="none" stroke="#3b82f6" stroke-width="1" id="circle2"></circle>
    <rect x="31" y="6" width="2" height="6" fill="#1e3a8a" id="rect2"></rect>
    <rect x="52" y="31" width="6" height="2" fill="#1e3a8a" id="rect3"></rect>
    <rect x="31" y="52" width="2" height="6" fill="#1e3a8a" id="rect4"></rect>
    <rect x="6" y="31" width="6" height="2" fill="#1e3a8a" id="rect5"></rect>
    <circle cx="32" cy="12" r="1.5" fill="#3b82f6" id="circle5"></circle>
    <circle cx="44.799999" cy="19.200001" r="1.5" fill="#3b82f6" id="circle6"></circle>
    <circle cx="44.799999" cy="44.799999" r="1.5" fill="#3b82f6" id="circle7"></circle>
    <circle cx="19.200001" cy="44.799999" r="1.5" fill="#3b82f6" id="circle8"></circle>
    <circle cx="19.200001" cy="19.200001" r="1.5" fill="#3b82f6" id="circle9"></circle>
    <circle cx="52" cy="32" r="1.5" fill="#3b82f6" id="circle10"></circle>
    <circle cx="12" cy="32" r="1.5" fill="#3b82f6" id="circle11"></circle>
    <circle cx="32" cy="52" r="1.5" fill="#3b82f6" id="circle12"></circle>
    <line x1="32" y1="32" x2="42" y2="32" stroke="#1e3a8a" stroke-width="3" stroke-linecap="round" id="line12"></line>
    <line x1="32" y1="32" x2="32" y2="16" stroke="#3b82f6" stroke-width="2" stroke-linecap="round" id="line13"></line>
    <circle cx="32" cy="32" r="2" fill="#1e3a8a" id="circle13"></circle>
  </g>
</svg>
