<svg xmlns="http://www.w3.org/2000/svg" viewBox="0 0 64 64"><path d="M6 38 L12 50 H52 L58 38Z" fill="#14B8A6"/><path d="M6 38 H58" stroke="#115E59" stroke-width="2"/><rect x="30" y="16" width="3" height="22" fill="#115E59"/><path d="M33 18 L50 32 L33 34Z" fill="#6B7280"/><path d="M4 50 Q8 55 12 50" fill="none" stroke="#99F6E4" stroke-width="2"/><path d="M14 52 Q18 57 22 52" fill="none" stroke="#99F6E4" stroke-width="2"/><path d="M26 50 Q30 55 34 50" fill="none" stroke="#99F6E4" stroke-width="2"/><path d="M36 52 Q40 57 44 52" fill="none" stroke="#99F6E4" stroke-width="2"/><path d="M46 50 Q50 55 54 50" fill="none" stroke="#99F6E4" stroke-width="2"/><path d="M8 46 Q10 48 12 46" fill="none" stroke="#99F6E4" stroke-width="1"/><path d="M20 47 Q22 49 24 47" fill="none" stroke="#99F6E4" stroke-width="1"/><path d="M40 47 Q42 49 44 47" fill="none" stroke="#99F6E4" stroke-width="1"/><path d="M52 46 Q54 48 56 46" fill="none" stroke="#99F6E4" stroke-width="1"/></svg>