<svg viewBox="0 0 64 64" version="1.1" id="svg14103" xmlns="http://www.w3.org/2000/svg">
  <defs id="defs14107"></defs>
  
  <rect x="6" y="16" width="8" height="38" rx="2" fill="#7c3aed" id="rect14087"></rect>
  <rect x="16" y="18" width="7" height="34" rx="2" fill="#8b5cf6" id="rect14089"></rect>
  <rect x="25" y="20" width="7" height="30" rx="2" fill="#7c3aed" id="rect14091"></rect>
  <rect x="34" y="22" width="7" height="26" rx="2" fill="#8b5cf6" id="rect14093"></rect>
  <rect x="43" y="22" width="7" height="22" rx="2" fill="#7c3aed" id="rect14095"></rect>
  <rect x="52" y="22" width="6" height="18" rx="2" fill="#8b5cf6" id="rect14097"></rect>
  <rect x="4" y="52" width="56" height="3" rx="1" fill="#5b21b6" id="rect14099"></rect>
  <rect x="4" y="14" width="56" height="3" rx="1" fill="#5b21b6" id="rect14101"></rect>
  <rect style="fill:#afabb6;fill-opacity:1;stroke:#4f4b4a;stroke-width:0.272;stroke-dasharray:none;stroke-opacity:1" id="rect14524" width="5.4801221" height="25.247707" x="7.1437311" y="22.136" rx="1"></rect>
  <rect style="fill:#afabb6;fill-opacity:1;stroke:#4f4b4a;stroke-width:0.24952;stroke-dasharray:none;stroke-opacity:1" id="rect14524-3" width="5.5026021" height="21.160095" x="16.820564" y="24.473385" rx="1.0041021"></rect>
  <rect style="fill:#afabb6;fill-opacity:1;stroke:#4f4b4a;stroke-width:0.230218;stroke-dasharray:none;stroke-opacity:1" id="rect14524-1" width="5.5219035" height="17.950039" x="25.716112" y="25.735905" rx="1.0076243"></rect>
  <rect style="fill:#afabb6;fill-opacity:1;stroke:#4f4b4a;stroke-width:0.209708;stroke-dasharray:none;stroke-opacity:1" id="rect14524-14" width="5.5424137" height="14.839051" x="34.904629" y="26.312803" rx="1.0113668"></rect>
  <rect style="fill:#afabb6;fill-opacity:1;stroke:#4f4b4a;stroke-width:0.199329;stroke-dasharray:none;stroke-opacity:1" id="rect14524-9" width="5.5527925" height="13.381539" x="43.706779" y="25.916178" rx="1.0132607"></rect>
  <rect style="fill:#afabb6;fill-opacity:1;stroke:#4f4b4a;stroke-width:0.181402;stroke-dasharray:none;stroke-opacity:1" id="rect14524-5" width="4.494267" height="13.693047" x="52.700882" y="24.243607" rx="0.82010347"></rect>
</svg>
